<svg xmlns="http://www.w3.org/2000/svg" viewBox="0 0 842.52 411.84"><defs><style>.cls-1,.cls-3{fill:#274653;}.cls-2{fill:#2c9e8f;}.cls-2,.cls-3{fill-rule:evenodd;}</style></defs><g id="Layer_2" data-name="Layer 2"><g id="Layer_1-2" data-name="Layer 1"><path class="cls-1" d="M28.83,267.17v13.46H42.59V267.17Z"/><path class="cls-1" d="M114,267.17v13.46h13.76V267.17Zm-20.34,0v13.46h13.61V267.17Z"/><path class="cls-1" d="M285.14,267.32v119c0,3.37,0,11.93-8.56,11.93s-8.42-6.73-8.42-11.93V372.69H240.79V313.2c0-10.4-6.88-22.17-22.18-22.17-10.24,0-22.17,6.73-22.17,22.17v59.49H181a75.05,75.05,0,0,0,2.6-20.49c0-22.17-8.71-44.2-23.85-59.64h-20.5c8.57,6.88,30.59,25.54,30.59,59.64s-22,51.23-30.59,59.64h20.5a87.94,87.94,0,0,0,16.51-25.54H254.4v3.37c0,15.29,11.93,22.17,22.18,22.17,6.88,0,22.32-3.51,22.32-22.17V267.32ZM227,372.69H210.2V316.41c0-3.21,0-11.92,8.41-11.92S227,313.2,227,316.41Z"/><path class="cls-1" d="M211.43,267.17v13.46h13.76V267.17Z"/><path class="cls-2" d="M327.73,267.17V411.84H314V267.17h.3v-1.68c0-67.14-2.14-85.34-76.46-118.22-38.54,17-57.81,29.82-67.29,46.8-9,16.21-9.64,37.77-9.79,71.42h.15V279H147.27v-6.73c0-39.61.16-64.23,11.47-84.73,11-19.72,31.66-34,72-51.84V125.1a5.09,5.09,0,0,1,2.6-4.44,1.39,1.39,0,0,1-.15-.76v-7.34a2.79,2.79,0,0,1,1.22-2.45,23.09,23.09,0,0,1-15.29-16.06,22.71,22.71,0,0,1,9-24.92A22.75,22.75,0,0,0,225.57,87a23.53,23.53,0,0,0,35.94,12.84,23.43,23.43,0,0,1-13.91,10.56,24,24,0,0,1-5.66.76,4.56,4.56,0,0,1,.3,1.38v7.34a1.39,1.39,0,0,1-.15.76,4.91,4.91,0,0,1,2.6,4.44v10.55C326.05,171.74,327.73,192.08,327.73,267.17Z"/><path class="cls-3" d="M112.41,291c-10.4,0-22.33,6.73-22.33,22.17v59.49H72.18V250.5l-9.32-5.66-9.33-5.5,9.33-5.66,9.32-5.51V169.75l-9.32-5.65-9.33-5.51,9.33-5.66,9.32-5.5V86.1L54.14,76,42.21,69.43a2.26,2.26,0,0,0,.31-1.38V56.74a5.3,5.3,0,0,0-2.6-4.44,5.53,5.53,0,0,0,.3-1.53V43.43a2.92,2.92,0,0,0-.46-1.53,18.05,18.05,0,0,0,5.66-.76A23.06,23.06,0,0,0,59.49,30.59,22.37,22.37,0,0,1,52,34.1,23.2,23.2,0,0,1,23.55,17.89,23.26,23.26,0,0,1,26,0a23,23,0,0,0-9,24.93,22.43,22.43,0,0,0,15.59,15.9,3,3,0,0,0-1.52,2.6v7.34a5.53,5.53,0,0,0,.3,1.53,5.28,5.28,0,0,0-2.6,4.44V68.05a4,4,0,0,0,.46,1.84L18.05,76,0,86.1v61.33l9.33,5.5,9.33,5.66L9.33,164.1,0,169.75v58.42l9.33,5.51,9.33,5.66-9.33,5.5L0,250.5V389.67C0,405,11.93,411.84,22.18,411.84c6.88,0,22.32-3.51,22.32-22.17V292.56H30.74V386.3c0,3.37,0,11.93-8.56,11.93s-8.42-6.73-8.42-11.93V257.54l11.17-6.43,11.16-6.27,11.17,6.27,10.85,6L58,351.59V386.3H90.08v25.54h44.5V313.2C134.58,302.8,127.55,291,112.41,291ZM13.76,140.7V95.12L24.93,88.7l11.16-6.42L47.26,88.7l11.16,6.42V140.7l-11.16,6.42-11.17,6.27-11.16-6.27Zm22.33,94.66-11.16-6.42-11.17-6.27V176.94l11.17-6.27,11.16-6.42,11.17,6.42,11.16,6.27v45.73l-11.16,6.27Zm84.73,162.87h-17V316.41c0-3.21,0-11.92,8.57-11.92,8.41,0,8.41,8.71,8.41,11.92Z"/><path class="cls-1" d="M393.15,297.44a13.81,13.81,0,0,1-3.68,9.61,11.56,11.56,0,0,1-8.93,4.09,11.8,11.8,0,0,1-8.9-3.93,13.61,13.61,0,0,1-3.8-9.77V286.3h4.53v10.62a11.46,11.46,0,0,0,2,6.73,7.5,7.5,0,0,0,12.29,0,11.37,11.37,0,0,0,2-6.73V286.3h4.52Zm-10.33-14.82h-4.41v-4.45h4.41Z"/><path class="cls-1" d="M403.49,275.21c-.72,1.12-1.44,1.68-2.17,1.68a4.22,4.22,0,0,1-2-1,4.25,4.25,0,0,0-2.32-1,2.14,2.14,0,0,0-1.68,1.08l-.36-1.36c.64-1.13,1.32-1.69,2-1.69a4.72,4.72,0,0,1,2.16,1,4.58,4.58,0,0,0,2.12,1,2.45,2.45,0,0,0,1.85-1.13Zm-1.76,29.28h-4.45V278.61h4.45Z"/><path class="cls-1" d="M421.63,304.49h-7.17c-.68,4.28-4.32,6.65-9.77,6.65v-3.85c3.72,0,5.57-1.84,5.57-5.69V286.3h4.48v13.62h6.89Z"/><path class="cls-1" d="M447.23,304.49h-4.45c-3.84,0-6.81-.72-8.93-2.21-2.08,1.49-5.05,2.21-8.85,2.21h-4.93v-4.57h4.69a9.45,9.45,0,0,0,3.72-.44,9.48,9.48,0,0,1-3-3.69,10,10,0,0,1-.92-4.16,7.39,7.39,0,0,1,.48-2.76,9.25,9.25,0,0,1,8.81-6.17c4.53,0,9.33,3.08,9.33,8.77a9.8,9.8,0,0,1-1,4.24,9.43,9.43,0,0,1-2.92,3.77,9.17,9.17,0,0,0,3.72.44h4.17Zm-15-24.92H427.8v-4.48h4.41Zm4.12,16.79a6,6,0,0,0,2.65-5.13,4.75,4.75,0,0,0-5.09-5,4.8,4.8,0,0,0-5.13,5,6.05,6.05,0,0,0,2.65,5.13,16.25,16.25,0,0,0,2.48,1.48A17.1,17.1,0,0,0,436.33,296.36Zm3.49-16.79h-4.41v-4.48h4.41Z"/><path class="cls-1" d="M457.2,297.24q0,7.26-6.73,7.25h-4.72v-4.57h3.8c1.48,0,2.4-.44,2.84-1.32a8.4,8.4,0,0,0,.33-2.89V278.65h4.48Z"/><path class="cls-1" d="M465.77,304.49h-4.44V278.61h4.44Z"/><path class="cls-1" d="M515.84,304.49h-2a11.1,11.1,0,0,1-8-3.29,8.27,8.27,0,0,1-7.33,3.69c-5.33,0-9.06-4.09-9.06-9.38a9.32,9.32,0,0,1,1.13-4.68h-3.29c-3,0-4.93,2.64-4.93,7v13.3H478V296.92c0-6.45,3.44-10.66,9.41-10.66h11.22c4,0,7.33,2.28,8.33,5.77,1.84,6.33,3.56,7.89,6.93,7.89h2Zm-12.9-8.82c0-3-1.76-5.32-4.52-5.32-2.57,0-4.29,2.16-4.29,5.12s1.88,5.29,4.57,5.29C501.14,300.76,502.94,298.72,502.94,295.67Z"/><path class="cls-1" d="M518.4,313.26H514v-4.49h4.4Zm14.26-8.77H514.2v-4.57h4.28a2.79,2.79,0,0,0,2.73-1.36,7,7,0,0,0,.48-3.05V286.3h4.44v9c0,2.37-.32,3.89-1,4.65h7.53ZM526,313.26h-4.4v-4.49H526Z"/><path class="cls-1" d="M549.93,304.49H531.58v-4.57h4.17a2.72,2.72,0,0,0,2.68-1.36,7,7,0,0,0,.48-3.05V278.65h4.45v16.62c0,2.37-.32,3.89-1,4.65h7.53Z"/><path class="cls-1" d="M579.05,304.49h-8.54a7.81,7.81,0,0,1-3.56-1,8.62,8.62,0,0,1-2.56-1.93,15.89,15.89,0,0,1-8.86,2.89h-6.72v-4.57h6.64a13,13,0,0,0,3.13-.28,8.17,8.17,0,0,0,2.88-1.24,11.46,11.46,0,0,0-3.4-3,15.36,15.36,0,0,0-4.73-2.16V289a20,20,0,0,1,10.86-3.29,16.89,16.89,0,0,1,11.41,4.17,16.49,16.49,0,0,1-2.84,4.44,23.52,23.52,0,0,1-4.61,4.49,3.4,3.4,0,0,0,1.6,1,12.54,12.54,0,0,0,1.77.08h7.53Zm-8.94-13.26a11.13,11.13,0,0,0-5.8-1.6,13.17,13.17,0,0,0-6.17,1.64,15.93,15.93,0,0,1,6.81,4.81,12.19,12.19,0,0,0,2.92-2.21A17.91,17.91,0,0,0,570.11,291.23Z"/><path class="cls-1" d="M582,282.58H577.6v-4.45H582Zm14.34,21.91h-18.5v-4.57H582a2.72,2.72,0,0,0,2.68-1.36,6.86,6.86,0,0,0,.49-3.05V286.3h4.44v9c0,2.37-.32,3.89-1,4.65h7.69Zm-6.73-21.91h-4.4v-4.45h4.4Z"/><path class="cls-1" d="M606.48,297.24q0,7.26-6.72,7.25H595v-4.57h3.8c1.49,0,2.41-.44,2.85-1.32a8.74,8.74,0,0,0,.32-2.89V278.65h4.48Z"/><path class="cls-1" d="M644,297.44a13.81,13.81,0,0,1-3.68,9.61,11.55,11.55,0,0,1-8.93,4.09,11.76,11.76,0,0,1-8.89-3.93,13.58,13.58,0,0,1-3.81-9.77V286.3h4.53v10.62a11.46,11.46,0,0,0,2,6.73,7.51,7.51,0,0,0,12.3,0,11.44,11.44,0,0,0,2-6.73V286.3H644Zm-10.33-14.82h-4.41v-4.45h4.41Z"/><path class="cls-1" d="M659.92,304.49h-5.25a6,6,0,0,1-5-2.09,7.78,7.78,0,0,1-1.6-5.2V278.65h4.45v16.74c0,2,.44,3.25,1.28,3.85a6.25,6.25,0,0,0,3.44.68h2.65Z"/><path class="cls-1" d="M681.83,295.27c0,5.29-3.61,9.22-9,9.22H658.6v-4.57H665a10.1,10.1,0,0,1-1.16-4.77c0-5.44,3.73-9.25,9.05-9.25S681.83,290,681.83,295.27ZM671.21,282.5h-4.36v-4.45h4.36Zm6,12.77c0-3-1.84-5.28-4.53-5.28s-4.28,2-4.28,5.12c0,2.89,1.84,5.25,4.52,5.25S677.22,298.24,677.22,295.27Zm1.6-12.77h-4.36v-4.45h4.36Z"/><path class="cls-1" d="M701.73,304.49h-7.17c-.68,4.28-4.32,6.65-9.77,6.65v-3.85c3.73,0,5.57-1.84,5.57-5.69V286.3h4.49v13.62h6.88Z"/><path class="cls-1" d="M727.33,304.49h-4.45c-3.84,0-6.81-.72-8.93-2.21-2.08,1.49-5.05,2.21-8.85,2.21h-4.93v-4.57h4.69a9.45,9.45,0,0,0,3.72-.44,9.48,9.48,0,0,1-3-3.69,10,10,0,0,1-.92-4.16,7.39,7.39,0,0,1,.48-2.76A9.26,9.26,0,0,1,714,282.7c4.53,0,9.33,3.08,9.33,8.77a9.8,9.8,0,0,1-1,4.24,9.43,9.43,0,0,1-2.92,3.77,9.17,9.17,0,0,0,3.72.44h4.17Zm-10.9-8.13a6,6,0,0,0,2.65-5.13,5.11,5.11,0,1,0-10.22,0,6.05,6.05,0,0,0,2.65,5.13,16.25,16.25,0,0,0,2.48,1.48A17.1,17.1,0,0,0,716.43,296.36ZM716,279.57h-4.4v-4.48H716Z"/><path class="cls-1" d="M737.3,297.24q0,7.26-6.73,7.25h-4.72v-4.57h3.8c1.48,0,2.41-.44,2.85-1.32a8.74,8.74,0,0,0,.32-2.89V278.65h4.48Z"/><path class="cls-1" d="M745.87,304.49h-4.44V278.61h4.44Z"/><path class="cls-1" d="M775.39,304.49h-7.17c-.68,4.28-4.32,6.65-9.77,6.65v-3.85c3.73,0,5.57-1.84,5.57-5.69V286.3h4.48v13.62h6.89Zm-6.93-21.87h-4.4v-4.45h4.4Z"/><path class="cls-1" d="M800.63,301.68v2.81h-26.8v-4.57h22a9.75,9.75,0,0,0-2.16-6.37,8.5,8.5,0,0,0-6.93-3h-9.25l7.89-11.86h5.32l-5.4,7.65h2a13.27,13.27,0,0,1,7.69,2.2C798.74,291,800.63,295.39,800.63,301.68Z"/><path class="cls-1" d="M820.53,304.49h-7.17c-.68,4.28-4.32,6.65-9.77,6.65v-3.85c3.73,0,5.57-1.84,5.57-5.69V286.3h4.49v13.62h6.88Z"/><path class="cls-1" d="M842.4,298.8c0,5.33-3.64,9.25-9,9.25a8.51,8.51,0,0,1-7.25-3.56H819v-4.57h5.53l0-.2a9.81,9.81,0,0,1-.08-1.08c0-5.37,3.72-9.21,9-9.21S842.4,293.55,842.4,298.8Zm-4.6,0c0-3.05-1.84-5.33-4.49-5.33S829,295.59,829,298.6s1.88,5.29,4.56,5.29C836,303.89,837.8,301.84,837.8,298.8Z"/><path class="cls-1" d="M387,351.49h-2.2a1,1,0,0,1-.62-.2,1.15,1.15,0,0,1-.35-.48l-2-5.06h-9.41l-2,5.06a1.12,1.12,0,0,1-.35.47.9.9,0,0,1-.61.21h-2.2l8.39-21h2.89Zm-13.75-7.79h7.83l-3.29-8.54a14.61,14.61,0,0,1-.63-2c-.11.4-.22.77-.32,1.11s-.2.63-.3.88Z"/><path class="cls-1" d="M392.25,329.91v21.58h-2.6V329.91Z"/><path class="cls-1" d="M396.27,341.6h7.23v2.21h-7.23Z"/><path class="cls-1" d="M420.53,330.5v2.31H410.46v7.34h8.61v2.31h-8.61v9H407.6v-21Z"/><path class="cls-1" d="M425.23,336.65v9.46a4,4,0,0,0,.78,2.61,2.89,2.89,0,0,0,2.34.92,4.48,4.48,0,0,0,2.15-.54,6.58,6.58,0,0,0,1.86-1.51V336.65H435v14.84h-1.55a.68.68,0,0,1-.71-.55l-.2-1.59a8.44,8.44,0,0,1-2.17,1.72,5.73,5.73,0,0,1-2.75.65,5.53,5.53,0,0,1-2.15-.4,4.26,4.26,0,0,1-1.56-1.14,4.84,4.84,0,0,1-.94-1.77,7.89,7.89,0,0,1-.32-2.3v-9.46Z"/><path class="cls-1" d="M439.35,351.49V336.65h1.49a.83.83,0,0,1,.59.16,1.09,1.09,0,0,1,.22.56l.17,2.31a6.91,6.91,0,0,1,1.88-2.42,4.18,4.18,0,0,1,2.63-.87,4,4,0,0,1,2,.52l-.34,1.95a.44.44,0,0,1-.45.37,2.35,2.35,0,0,1-.63-.14,4.06,4.06,0,0,0-1.19-.14,3.37,3.37,0,0,0-2.28.79A6,6,0,0,0,442,342v9.45Z"/><path class="cls-1" d="M463.23,336.65v19.86h-2.6v-7.22a7.87,7.87,0,0,1-2.14,1.74,5.52,5.52,0,0,1-2.73.66,5.28,5.28,0,0,1-2.31-.49,4.9,4.9,0,0,1-1.77-1.44,6.84,6.84,0,0,1-1.13-2.38,12.27,12.27,0,0,1-.4-3.26,10.31,10.31,0,0,1,.44-3.05,7.64,7.64,0,0,1,1.27-2.46,6,6,0,0,1,2-1.63,5.92,5.92,0,0,1,2.7-.59,5.33,5.33,0,0,1,2.44.51,5.84,5.84,0,0,1,1.79,1.45l.18-1.16a.66.66,0,0,1,.7-.54Zm-6.6,12.93a4.19,4.19,0,0,0,2.23-.58,6.55,6.55,0,0,0,1.77-1.66v-7.17a4.15,4.15,0,0,0-1.57-1.34,4.45,4.45,0,0,0-1.91-.41A3.77,3.77,0,0,0,454,339.9a6.93,6.93,0,0,0-1.11,4.22,10.47,10.47,0,0,0,.25,2.48,4.67,4.67,0,0,0,.73,1.7,2.78,2.78,0,0,0,1.19,1A3.89,3.89,0,0,0,456.63,349.58Z"/><path class="cls-1" d="M478.59,351.49h-1.15a1.37,1.37,0,0,1-.62-.12.69.69,0,0,1-.31-.5l-.29-1.38c-.39.36-.77.67-1.14.95a6.36,6.36,0,0,1-1.17.7,5.75,5.75,0,0,1-1.31.43,7.41,7.41,0,0,1-1.55.15,5.33,5.33,0,0,1-1.62-.24,3.73,3.73,0,0,1-1.31-.73,3.4,3.4,0,0,1-.88-1.23,4.27,4.27,0,0,1-.33-1.75,3.29,3.29,0,0,1,.48-1.7,4.24,4.24,0,0,1,1.56-1.45,10.27,10.27,0,0,1,2.82-1,19.08,19.08,0,0,1,4.26-.41V342a4,4,0,0,0-.74-2.63,2.66,2.66,0,0,0-2.19-.89,4.65,4.65,0,0,0-1.6.24,6,6,0,0,0-1.13.54c-.32.2-.59.38-.82.54a1.2,1.2,0,0,1-.68.24.72.72,0,0,1-.46-.14,1,1,0,0,1-.32-.34l-.46-.83a7.86,7.86,0,0,1,5.79-2.36,5.56,5.56,0,0,1,2.22.41,4.49,4.49,0,0,1,1.62,1.14,5,5,0,0,1,1,1.77,7.59,7.59,0,0,1,.33,2.29Zm-6.76-1.6a5.46,5.46,0,0,0,1.26-.14,4.29,4.29,0,0,0,1.07-.4,5.3,5.3,0,0,0,1-.62,7.69,7.69,0,0,0,.9-.83v-3.06a16.74,16.74,0,0,0-3.06.23,8.76,8.76,0,0,0-2.05.59,2.92,2.92,0,0,0-1.15.87,1.89,1.89,0,0,0-.36,1.12,2.48,2.48,0,0,0,.19,1,2.15,2.15,0,0,0,.51.7,2,2,0,0,0,.77.39A3.21,3.21,0,0,0,471.83,349.89Z"/><path class="cls-1" d="M482.63,351.49V336.65h1.56a.66.66,0,0,1,.7.54l.2,1.61a8.57,8.57,0,0,1,2.16-1.72,5.65,5.65,0,0,1,2.77-.66,5.34,5.34,0,0,1,2.14.4,4.15,4.15,0,0,1,1.55,1.14,5.06,5.06,0,0,1,1,1.78A7.89,7.89,0,0,1,495,342v9.45h-2.61V342a4,4,0,0,0-.77-2.61,2.86,2.86,0,0,0-2.35-.93,4.39,4.39,0,0,0-2.16.55,7.23,7.23,0,0,0-1.85,1.51v10.93Z"/><path class="cls-1" d="M520,347.15a.58.58,0,0,1,.42.19l1.11,1.22a9,9,0,0,1-3.12,2.32,10.61,10.61,0,0,1-4.43.84,10.47,10.47,0,0,1-4.12-.78,9.17,9.17,0,0,1-3.15-2.2,10.06,10.06,0,0,1-2-3.39,12.89,12.89,0,0,1-.71-4.35,12,12,0,0,1,.76-4.35,10.19,10.19,0,0,1,2.16-3.4,9.72,9.72,0,0,1,3.34-2.2,11.36,11.36,0,0,1,4.28-.78,10.27,10.27,0,0,1,4,.71,10.11,10.11,0,0,1,3,1.95l-.92,1.31a1.36,1.36,0,0,1-.24.24.64.64,0,0,1-.38.09.69.69,0,0,1-.4-.14l-.51-.34c-.19-.14-.42-.28-.68-.44a6.37,6.37,0,0,0-.94-.44,7.13,7.13,0,0,0-1.26-.34,8.23,8.23,0,0,0-1.66-.14,8.08,8.08,0,0,0-3.08.57A7.09,7.09,0,0,0,509,335a7.55,7.55,0,0,0-1.57,2.61,9.81,9.81,0,0,0-.56,3.44,10,10,0,0,0,.56,3.5,7.76,7.76,0,0,0,1.54,2.6,6.5,6.5,0,0,0,2.3,1.62,7.41,7.41,0,0,0,2.87.55,10.81,10.81,0,0,0,1.69-.11,6.34,6.34,0,0,0,1.38-.34,6,6,0,0,0,1.19-.59,10,10,0,0,0,1.1-.86A.74.74,0,0,1,520,347.15Z"/><path class="cls-1" d="M530.77,336.42a6.77,6.77,0,0,1,2.46.44,5.63,5.63,0,0,1,1.95,1.29,6,6,0,0,1,1.28,2.08,8,8,0,0,1,.46,2.82,1.82,1.82,0,0,1-.13.82.55.55,0,0,1-.5.21h-9.87a8.33,8.33,0,0,0,.38,2.44,5,5,0,0,0,1,1.74,3.88,3.88,0,0,0,1.46,1,5,5,0,0,0,1.9.34,5.68,5.68,0,0,0,1.7-.23,8.15,8.15,0,0,0,2.07-1,1.16,1.16,0,0,1,.6-.23.6.6,0,0,1,.5.25l.73,1a4.72,4.72,0,0,1-1.16,1,6.89,6.89,0,0,1-1.44.71,8.45,8.45,0,0,1-1.59.42,10.06,10.06,0,0,1-1.63.14,7.46,7.46,0,0,1-2.83-.52,6.27,6.27,0,0,1-2.24-1.52,7,7,0,0,1-1.47-2.49,10.05,10.05,0,0,1-.53-3.39,8.57,8.57,0,0,1,.48-2.9,6.66,6.66,0,0,1,1.37-2.34,6.27,6.27,0,0,1,2.18-1.55A7.08,7.08,0,0,1,530.77,336.42Zm.06,1.91a4,4,0,0,0-3,1.1,5.07,5.07,0,0,0-1.34,3h8.07a5.41,5.41,0,0,0-.25-1.66,3.75,3.75,0,0,0-.74-1.31,3.31,3.31,0,0,0-1.17-.84A4,4,0,0,0,530.83,338.33Z"/><path class="cls-1" d="M540.33,351.49V336.65h1.55a.67.67,0,0,1,.71.54l.2,1.61a8.23,8.23,0,0,1,2.16-1.72,5.63,5.63,0,0,1,2.76-.66,5.36,5.36,0,0,1,2.15.4,4.23,4.23,0,0,1,1.55,1.14,5,5,0,0,1,.94,1.78,7.56,7.56,0,0,1,.33,2.3v9.45h-2.61V342a4,4,0,0,0-.77-2.61,2.88,2.88,0,0,0-2.35-.93,4.39,4.39,0,0,0-2.16.55,7.06,7.06,0,0,0-1.85,1.51v10.93Z"/><path class="cls-1" d="M561.2,351.72a3.59,3.59,0,0,1-2.7-1,3.94,3.94,0,0,1-1-2.83v-9.08h-1.78a.56.56,0,0,1-.4-.14.52.52,0,0,1-.16-.43v-1l2.43-.31.6-4.58a.56.56,0,0,1,.19-.36.62.62,0,0,1,.41-.14h1.32v5.11h4.24v1.89h-4.24v8.91a1.9,1.9,0,0,0,.45,1.39,1.6,1.6,0,0,0,1.17.45,2.12,2.12,0,0,0,.71-.11,2.52,2.52,0,0,0,.52-.24l.38-.24a.39.39,0,0,1,.63.14l.77,1.24a5,5,0,0,1-1.63,1A5.49,5.49,0,0,1,561.2,351.72Z"/><path class="cls-1" d="M573.59,336.42a6.84,6.84,0,0,1,2.46.44,5.5,5.5,0,0,1,1.94,1.29,5.76,5.76,0,0,1,1.28,2.08,8,8,0,0,1,.47,2.82,1.66,1.66,0,0,1-.14.82.52.52,0,0,1-.49.21h-9.87a8,8,0,0,0,.38,2.44,5,5,0,0,0,1,1.74,3.91,3.91,0,0,0,1.47,1,5,5,0,0,0,1.9.34,5.57,5.57,0,0,0,1.69-.23,7.68,7.68,0,0,0,1.23-.49,8.48,8.48,0,0,0,.85-.49,1.16,1.16,0,0,1,.6-.23.57.57,0,0,1,.49.25l.74,1a4.9,4.9,0,0,1-1.16,1,6.89,6.89,0,0,1-1.44.71,8.88,8.88,0,0,1-1.59.42,10.06,10.06,0,0,1-1.63.14,7.46,7.46,0,0,1-2.83-.52,6.19,6.19,0,0,1-2.24-1.52,7,7,0,0,1-1.47-2.49,10.05,10.05,0,0,1-.53-3.39,8.57,8.57,0,0,1,.48-2.9,6.8,6.8,0,0,1,1.36-2.34,6.41,6.41,0,0,1,2.19-1.55A7.08,7.08,0,0,1,573.59,336.42Zm0,1.91a4,4,0,0,0-3,1.1,5.14,5.14,0,0,0-1.35,3h8.07a5.12,5.12,0,0,0-.25-1.66,3.73,3.73,0,0,0-.73-1.31,3.26,3.26,0,0,0-1.18-.84A4,4,0,0,0,573.64,338.33Z"/><path class="cls-1" d="M583.15,351.49V336.65h1.49a.83.83,0,0,1,.59.16,1.09,1.09,0,0,1,.22.56l.17,2.31a6.91,6.91,0,0,1,1.88-2.42,4.18,4.18,0,0,1,2.63-.87,4,4,0,0,1,2,.52l-.34,1.95a.44.44,0,0,1-.45.37,2.35,2.35,0,0,1-.63-.14,4.06,4.06,0,0,0-1.19-.14,3.35,3.35,0,0,0-2.28.79,6,6,0,0,0-1.53,2.3v9.45Z"/><path class="cls-1" d="M601.36,351.49V338.88l-1.64-.19a1.36,1.36,0,0,1-.5-.23.54.54,0,0,1-.2-.45v-1.07h2.34v-1.43a6.58,6.58,0,0,1,.36-2.26,4.49,4.49,0,0,1,1-1.67,4.35,4.35,0,0,1,1.6-1,6.1,6.1,0,0,1,2.11-.35,5.56,5.56,0,0,1,1.85.3l-.06,1.3a.34.34,0,0,1-.25.35,2.85,2.85,0,0,1-.66.06h-.45a4.3,4.3,0,0,0-1.23.17,2.29,2.29,0,0,0-.94.58,2.48,2.48,0,0,0-.61,1,5.19,5.19,0,0,0-.21,1.59v1.36h4.29v1.89H604v12.66Z"/><path class="cls-1" d="M616.74,336.42a7.7,7.7,0,0,1,2.94.54,6.11,6.11,0,0,1,2.22,1.54,6.76,6.76,0,0,1,1.41,2.41,10.4,10.4,0,0,1,0,6.31,6.94,6.94,0,0,1-1.41,2.41,6.21,6.21,0,0,1-2.22,1.53,8.42,8.42,0,0,1-5.88,0,6.34,6.34,0,0,1-2.23-1.53,7,7,0,0,1-1.42-2.41,10.2,10.2,0,0,1,0-6.31,6.78,6.78,0,0,1,1.42-2.41A6.24,6.24,0,0,1,613.8,337,7.7,7.7,0,0,1,616.74,336.42Zm0,13.24a3.82,3.82,0,0,0,3.28-1.48,8.38,8.38,0,0,0,0-8.23,3.79,3.79,0,0,0-3.28-1.48,4.43,4.43,0,0,0-1.93.38,3.51,3.51,0,0,0-1.37,1.1,4.7,4.7,0,0,0-.82,1.76,9.53,9.53,0,0,0-.27,2.37,9.37,9.37,0,0,0,.27,2.35,4.66,4.66,0,0,0,.82,1.75,3.48,3.48,0,0,0,1.37,1.09A4.43,4.43,0,0,0,616.74,349.66Z"/><path class="cls-1" d="M627.11,351.49V336.65h1.49a.82.82,0,0,1,.59.16,1,1,0,0,1,.22.56l.17,2.31a6.91,6.91,0,0,1,1.88-2.42,4.18,4.18,0,0,1,2.63-.87,4,4,0,0,1,2,.52l-.34,1.95a.44.44,0,0,1-.45.37,2.35,2.35,0,0,1-.63-.14,4.06,4.06,0,0,0-1.19-.14,3.35,3.35,0,0,0-2.28.79,6.12,6.12,0,0,0-1.53,2.3v9.45Z"/><path class="cls-1" d="M664.64,341a12.74,12.74,0,0,1-.3,2.81,10.85,10.85,0,0,1-.87,2.48,9.75,9.75,0,0,1-1.39,2.09,9.25,9.25,0,0,1-1.85,1.63l5.39,5.81h-2.34a2.73,2.73,0,0,1-.94-.15,1.8,1.8,0,0,1-.75-.51l-3.69-4a13.24,13.24,0,0,1-1.73.41,11.47,11.47,0,0,1-1.88.14,11,11,0,0,1-4.22-.78,9.53,9.53,0,0,1-3.27-2.2,10.13,10.13,0,0,1-2.11-3.39,13,13,0,0,1,0-8.66,10.13,10.13,0,0,1,2.11-3.39,9.3,9.3,0,0,1,3.27-2.22,11.67,11.67,0,0,1,8.44,0,9.12,9.12,0,0,1,3.27,2.22,10,10,0,0,1,2.11,3.39A12.12,12.12,0,0,1,664.64,341Zm-2.91,0a10.67,10.67,0,0,0-.53-3.47,7.23,7.23,0,0,0-1.5-2.6,6.37,6.37,0,0,0-2.34-1.63,8,8,0,0,0-3.07-.57,7.87,7.87,0,0,0-3.06.57,6.41,6.41,0,0,0-2.35,1.63,7.39,7.39,0,0,0-1.51,2.6,11.8,11.8,0,0,0,0,6.93,7.48,7.48,0,0,0,1.51,2.6,6.39,6.39,0,0,0,2.35,1.62,7.87,7.87,0,0,0,3.06.57,8,8,0,0,0,3.07-.57,6.35,6.35,0,0,0,2.34-1.62,7.31,7.31,0,0,0,1.5-2.6A10.61,10.61,0,0,0,661.73,341Z"/><path class="cls-1" d="M670.45,336.65v9.46a4,4,0,0,0,.78,2.61,2.91,2.91,0,0,0,2.34.92,4.48,4.48,0,0,0,2.15-.54,6.58,6.58,0,0,0,1.86-1.51V336.65h2.61v14.84h-1.55a.66.66,0,0,1-.7-.55l-.21-1.59a8.28,8.28,0,0,1-2.17,1.72,5.7,5.7,0,0,1-2.75.65,5.48,5.48,0,0,1-2.14-.4,4.26,4.26,0,0,1-1.56-1.14,4.86,4.86,0,0,1-1-1.77,7.9,7.9,0,0,1-.31-2.3v-9.46Z"/><path class="cls-1" d="M684.57,351.49V336.65h1.49a.82.82,0,0,1,.59.16,1,1,0,0,1,.22.56l.17,2.31a6.81,6.81,0,0,1,1.89-2.42,4.13,4.13,0,0,1,2.62-.87,3.9,3.9,0,0,1,1.12.14,4,4,0,0,1,.92.38l-.34,1.95a.44.44,0,0,1-.45.37,2.35,2.35,0,0,1-.63-.14A4.06,4.06,0,0,0,691,339a3.34,3.34,0,0,0-2.27.79,6,6,0,0,0-1.53,2.3v9.45Z"/><path class="cls-1" d="M706.8,351.49h-1.16a1.32,1.32,0,0,1-.61-.12.66.66,0,0,1-.31-.5l-.29-1.38a13.41,13.41,0,0,1-1.15.95,6.36,6.36,0,0,1-1.17.7,5.59,5.59,0,0,1-1.31.43,7.31,7.31,0,0,1-1.54.15,5.29,5.29,0,0,1-1.62-.24,3.73,3.73,0,0,1-1.31-.73,3.42,3.42,0,0,1-.89-1.23,4.27,4.27,0,0,1-.33-1.75,3.21,3.21,0,0,1,.49-1.7,4.24,4.24,0,0,1,1.56-1.45,10.07,10.07,0,0,1,2.81-1,19.24,19.24,0,0,1,4.27-.41V342a4,4,0,0,0-.74-2.63,2.68,2.68,0,0,0-2.19-.89,4.71,4.71,0,0,0-1.61.24,5.85,5.85,0,0,0-1.12.54c-.32.2-.59.38-.82.54a1.2,1.2,0,0,1-.68.24.77.77,0,0,1-.47-.14,1,1,0,0,1-.31-.34l-.47-.83a7.87,7.87,0,0,1,5.8-2.36,5.48,5.48,0,0,1,2.21.41,4.44,4.44,0,0,1,1.63,1.14,4.78,4.78,0,0,1,1,1.77,7.28,7.28,0,0,1,.34,2.29Zm-6.77-1.6a5.46,5.46,0,0,0,1.26-.14,4.52,4.52,0,0,0,1.08-.4,5.3,5.3,0,0,0,1-.62,9.71,9.71,0,0,0,.9-.83v-3.06a16.74,16.74,0,0,0-3.06.23,8.62,8.62,0,0,0-2,.59,2.92,2.92,0,0,0-1.15.87,1.89,1.89,0,0,0-.36,1.12,2.48,2.48,0,0,0,.19,1,2,2,0,0,0,.51.7,2,2,0,0,0,.76.39A3.21,3.21,0,0,0,700,349.89Z"/><path class="cls-1" d="M710.84,351.49V336.65h1.55a.67.67,0,0,1,.71.54l.2,1.61a8.23,8.23,0,0,1,2.16-1.72,5.63,5.63,0,0,1,2.76-.66,5.36,5.36,0,0,1,2.15.4,4.31,4.31,0,0,1,1.55,1.14,5,5,0,0,1,.94,1.78,7.57,7.57,0,0,1,.32,2.3v9.45h-2.6V342a4,4,0,0,0-.77-2.61,2.88,2.88,0,0,0-2.35-.93,4.39,4.39,0,0,0-2.16.55,7.06,7.06,0,0,0-1.85,1.51v10.93Z"/><path class="cls-1" d="M736.2,349.1h9.08v2.39H733.36v-21h2.84Z"/><path class="cls-1" d="M753.44,336.42a6.77,6.77,0,0,1,2.46.44,5.63,5.63,0,0,1,2,1.29,6,6,0,0,1,1.28,2.08,8.26,8.26,0,0,1,.46,2.82,1.82,1.82,0,0,1-.13.82.55.55,0,0,1-.5.21h-9.87a8.33,8.33,0,0,0,.38,2.44,5,5,0,0,0,1,1.74,3.88,3.88,0,0,0,1.46,1,5,5,0,0,0,1.9.34,5.68,5.68,0,0,0,1.7-.23,7.54,7.54,0,0,0,1.22-.49,8.76,8.76,0,0,0,.86-.49,1.11,1.11,0,0,1,.59-.23.6.6,0,0,1,.5.25l.73,1a4.72,4.72,0,0,1-1.16,1,6.89,6.89,0,0,1-1.44.71,8.45,8.45,0,0,1-1.59.42,10.06,10.06,0,0,1-1.63.14,7.46,7.46,0,0,1-2.83-.52,6.27,6.27,0,0,1-2.24-1.52,7,7,0,0,1-1.47-2.49,10.05,10.05,0,0,1-.53-3.39,8.57,8.57,0,0,1,.48-2.9,6.82,6.82,0,0,1,1.37-2.34,6.27,6.27,0,0,1,2.18-1.55A7.08,7.08,0,0,1,753.44,336.42Zm.06,1.91a4,4,0,0,0-3,1.1,5.07,5.07,0,0,0-1.34,3h8.07a5.41,5.41,0,0,0-.25-1.66,3.75,3.75,0,0,0-.74-1.31,3.31,3.31,0,0,0-1.17-.84A4,4,0,0,0,753.5,338.33Z"/><path class="cls-1" d="M773.9,351.49h-1.16a1.37,1.37,0,0,1-.62-.12.65.65,0,0,1-.3-.5l-.3-1.38c-.39.36-.77.67-1.14.95a6.36,6.36,0,0,1-1.17.7,5.75,5.75,0,0,1-1.31.43,7.41,7.41,0,0,1-1.55.15,5.27,5.27,0,0,1-1.61-.24,3.64,3.64,0,0,1-1.31-.73,3.31,3.31,0,0,1-.89-1.23,4.27,4.27,0,0,1-.33-1.75,3.29,3.29,0,0,1,.48-1.7,4.41,4.41,0,0,1,1.56-1.45,10.27,10.27,0,0,1,2.82-1,19.08,19.08,0,0,1,4.26-.41V342a4,4,0,0,0-.74-2.63,2.66,2.66,0,0,0-2.19-.89,4.65,4.65,0,0,0-1.6.24,6.26,6.26,0,0,0-1.13.54l-.82.54a1.17,1.17,0,0,1-.68.24.74.74,0,0,1-.46-.14.92.92,0,0,1-.31-.34l-.47-.83a8.3,8.3,0,0,1,2.65-1.78,8.15,8.15,0,0,1,3.15-.58,5.51,5.51,0,0,1,2.21.41,4.49,4.49,0,0,1,1.62,1.14,5,5,0,0,1,1,1.77,7.58,7.58,0,0,1,.34,2.29Zm-6.77-1.6a5.46,5.46,0,0,0,1.26-.14,4.52,4.52,0,0,0,1.08-.4,5.59,5.59,0,0,0,1-.62,7.69,7.69,0,0,0,.9-.83v-3.06a16.74,16.74,0,0,0-3.06.23,8.76,8.76,0,0,0-2,.59,2.92,2.92,0,0,0-1.15.87,1.89,1.89,0,0,0-.36,1.12,2.65,2.65,0,0,0,.19,1,2,2,0,0,0,.52.7,2,2,0,0,0,.76.39A3.21,3.21,0,0,0,767.13,349.89Z"/><path class="cls-1" d="M777.94,351.49V336.65h1.49a.83.83,0,0,1,.59.16,1.09,1.09,0,0,1,.22.56l.17,2.31a6.91,6.91,0,0,1,1.88-2.42,4.18,4.18,0,0,1,2.63-.87,4,4,0,0,1,1.12.14,4.14,4.14,0,0,1,.92.38l-.34,1.95a.44.44,0,0,1-.45.37,2.35,2.35,0,0,1-.63-.14,4.11,4.11,0,0,0-1.19-.14,3.35,3.35,0,0,0-2.28.79,6,6,0,0,0-1.53,2.3v9.45Z"/><path class="cls-1" d="M789.83,351.49V336.65h1.55a.66.66,0,0,1,.7.54l.21,1.61a8.23,8.23,0,0,1,2.16-1.72,5.58,5.58,0,0,1,2.76-.66,5.31,5.31,0,0,1,2.14.4,4.26,4.26,0,0,1,1.56,1.14,5,5,0,0,1,.94,1.78,7.89,7.89,0,0,1,.32,2.3v9.45h-2.6V342a4,4,0,0,0-.77-2.61,2.89,2.89,0,0,0-2.35-.93,4.39,4.39,0,0,0-2.16.55,7.27,7.27,0,0,0-1.86,1.51v10.93Z"/><path class="cls-1" d="M809.68,332a1.64,1.64,0,0,1-.15.71,2,2,0,0,1-.41.59,1.81,1.81,0,0,1-.59.4,1.79,1.79,0,0,1-.72.15,1.71,1.71,0,0,1-.71-.15,1.67,1.67,0,0,1-.58-.4,1.84,1.84,0,0,1-.41-.59A1.64,1.64,0,0,1,806,332a1.8,1.8,0,0,1,.55-1.32,1.67,1.67,0,0,1,.58-.4,1.71,1.71,0,0,1,.71-.15,1.79,1.79,0,0,1,.72.15,1.81,1.81,0,0,1,.59.4,1.94,1.94,0,0,1,.41.6A1.79,1.79,0,0,1,809.68,332Zm-.58,4.66v14.84h-2.61V336.65Z"/><path class="cls-1" d="M813.78,351.49V336.65h1.56a.66.66,0,0,1,.7.54l.21,1.61a8.35,8.35,0,0,1,2.15-1.72,5.65,5.65,0,0,1,2.77-.66,5.31,5.31,0,0,1,2.14.4,4.15,4.15,0,0,1,1.55,1.14,5.06,5.06,0,0,1,.95,1.78,7.89,7.89,0,0,1,.32,2.3v9.45h-2.61V342a4,4,0,0,0-.77-2.61,2.86,2.86,0,0,0-2.35-.93,4.39,4.39,0,0,0-2.16.55,7.23,7.23,0,0,0-1.85,1.51v10.93Z"/><path class="cls-1" d="M835.15,336.4a7.49,7.49,0,0,1,1.81.21,5.79,5.79,0,0,1,1.53.63h4v1c0,.33-.21.53-.62.62l-1.68.23a4.81,4.81,0,0,1,.08,4.1,4.53,4.53,0,0,1-1.16,1.51,5.26,5.26,0,0,1-1.76,1,7.15,7.15,0,0,1-2.23.33,7.74,7.74,0,0,1-2-.24,2.38,2.38,0,0,0-.71.65,1.2,1.2,0,0,0-.24.68.92.92,0,0,0,.42.82,2.88,2.88,0,0,0,1.13.4,8.56,8.56,0,0,0,1.6.13h1.82a9.94,9.94,0,0,1,1.82.16,5.48,5.48,0,0,1,1.6.53,2.82,2.82,0,0,1,1.55,2.71,3.91,3.91,0,0,1-.48,1.87,4.84,4.84,0,0,1-1.37,1.61,6.9,6.9,0,0,1-2.18,1.13,9.38,9.38,0,0,1-2.91.42,11.48,11.48,0,0,1-2.85-.32,6.82,6.82,0,0,1-2-.87,3.77,3.77,0,0,1-1.21-1.25,3.05,3.05,0,0,1-.4-1.49,2.68,2.68,0,0,1,.7-1.87,4.74,4.74,0,0,1,1.91-1.22,2.76,2.76,0,0,1-1-.78,2.19,2.19,0,0,1-.37-1.31,2,2,0,0,1,.12-.67,2.8,2.8,0,0,1,.36-.68,3.89,3.89,0,0,1,.59-.64,3.43,3.43,0,0,1,.82-.54,4.65,4.65,0,0,1-1.72-1.63,4.45,4.45,0,0,1-.62-2.38,4.66,4.66,0,0,1,.41-2,4.33,4.33,0,0,1,1.17-1.51,5.17,5.17,0,0,1,1.78-1A7.09,7.09,0,0,1,835.15,336.4Zm4.63,15.84a1.29,1.29,0,0,0-.31-.91,1.89,1.89,0,0,0-.83-.53,5.77,5.77,0,0,0-1.22-.28,11.18,11.18,0,0,0-1.45-.09h-1.55a5.35,5.35,0,0,1-1.51-.2,4.26,4.26,0,0,0-1.35,1,2,2,0,0,0-.52,1.37,1.8,1.8,0,0,0,.25.93,2.1,2.1,0,0,0,.79.74,4.49,4.49,0,0,0,1.32.5,8,8,0,0,0,1.88.19,8.37,8.37,0,0,0,1.89-.2,4.56,4.56,0,0,0,1.41-.55,2.6,2.6,0,0,0,.89-.85A2,2,0,0,0,839.78,352.24Zm-4.63-8a4.28,4.28,0,0,0,1.4-.22,2.91,2.91,0,0,0,1-.62,2.47,2.47,0,0,0,.61-.94,3.38,3.38,0,0,0,.21-1.21,2.9,2.9,0,0,0-.83-2.17,3.31,3.31,0,0,0-2.41-.8,3.27,3.27,0,0,0-2.39.8,2.86,2.86,0,0,0-.83,2.17,3.38,3.38,0,0,0,.21,1.21,2.61,2.61,0,0,0,.62.94,2.87,2.87,0,0,0,1,.62A4.16,4.16,0,0,0,835.15,344.24Z"/></g></g></svg>