<svg xmlns="http://www.w3.org/2000/svg"
    viewBox="0 0 475.16 547.89">
    <defs>
        <style>.cls-1,.cls-3{fill:#274653;}.cls-2{fill:#2c9e8f;}.cls-2,.cls-3{fill-rule:evenodd;}</style>
    </defs>
    <g id="Layer_2" >
        <g id="Layer_1-2">
            <path class="cls-1" d="M102.74,267.17v13.46h13.77V267.17Z"/>
            <path class="cls-1" d="M187.93,267.17v13.46h13.76V267.17Zm-20.34,0v13.46H181.2V267.17Z"/>
    <path class="cls-1" d="M359.06,267.32v119c0,3.37,0,11.93-8.57,11.93-8.41,0-8.41-6.73-8.41-11.93V372.69H314.71V313.2c0-10.4-6.88-22.17-22.18-22.17-10.24,0-22.17,6.73-22.17,22.17v59.49H254.91a75.05,75.05,0,0,0,2.6-20.49c0-22.17-8.72-44.2-23.86-59.64H213.16c8.56,6.88,30.59,25.54,30.59,59.64s-22,51.23-30.59,59.64h20.49a87.77,87.77,0,0,0,16.52-25.54h78.15v3.37c0,15.29,11.93,22.17,22.17,22.17,6.88,0,22.33-3.51,22.33-22.17V267.32ZM300.94,372.69H284.12V316.41c0-3.21,0-11.92,8.41-11.92s8.41,8.71,8.41,11.92Z"/>
            <path class="cls-1" d="M285.34,267.17v13.46h13.77V267.17Z"/>
            <path class="cls-2" d="M401.65,267.17V411.84H387.89V267.17h.3v-1.68c0-67.14-2.14-85.34-76.46-118.22-38.54,17-57.81,29.82-67.29,46.8-9,16.21-9.64,37.77-9.79,71.42h.15V279H221.19v-6.73c0-39.61.15-64.23,11.47-84.73,11-19.72,31.66-34,72-51.84V125.1a5.09,5.09,0,0,1,2.6-4.44,1.39,1.39,0,0,1-.15-.76v-7.34a2.79,2.79,0,0,1,1.22-2.45,23.07,23.07,0,0,1-15.29-16.06,22.71,22.71,0,0,1,9-24.92A22.75,22.75,0,0,0,299.49,87a23.53,23.53,0,0,0,35.94,12.84,23.45,23.45,0,0,1-13.92,10.56,23.86,23.86,0,0,1-5.66.76,4.3,4.3,0,0,1,.31,1.38v7.34a1.39,1.39,0,0,1-.15.76,4.91,4.91,0,0,1,2.6,4.44v10.55C400,171.74,401.65,192.08,401.65,267.17Z"/>
            <path class="cls-3" d="M186.32,291c-10.4,0-22.33,6.73-22.33,22.17v59.49H146.1V250.5l-9.33-5.66-9.33-5.5,9.33-5.66,9.33-5.51V169.75l-9.33-5.65-9.33-5.51,9.33-5.66,9.33-5.5V86.1L128.06,76l-11.93-6.58a2.32,2.32,0,0,0,.3-1.38V56.74a5.28,5.28,0,0,0-2.6-4.44,5.55,5.55,0,0,0,.31-1.53V43.43a3,3,0,0,0-.46-1.53,18.13,18.13,0,0,0,5.66-.76,23.09,23.09,0,0,0,14.07-10.55,22.42,22.42,0,0,1-7.5,3.51A23.19,23.19,0,0,1,97.47,17.89,23.26,23.26,0,0,1,99.92,0a23,23,0,0,0-9,24.93,22.44,22.44,0,0,0,15.6,15.9,3,3,0,0,0-1.53,2.6v7.34a5.55,5.55,0,0,0,.31,1.53,5.28,5.28,0,0,0-2.6,4.44V68.05a4,4,0,0,0,.46,1.84L92,76l-18,10.09v61.33l9.33,5.5,9.33,5.66-9.33,5.51-9.33,5.65v58.42l9.33,5.51,9.33,5.66-9.33,5.5-9.33,5.66V389.67c0,15.29,11.93,22.17,22.17,22.17,6.88,0,22.33-3.51,22.33-22.17V292.56H104.66V386.3c0,3.37,0,11.93-8.57,11.93-8.41,0-8.41-6.73-8.41-11.93V257.54l11.16-6.43L110,244.84l11.16,6.27,10.86,6-.15,94.51V386.3H164v25.54H208.5V313.2C208.5,302.8,201.46,291,186.32,291ZM87.68,140.7V95.12L98.84,88.7,110,82.28l11.16,6.42,11.17,6.42V140.7l-11.17,6.42L110,153.39l-11.17-6.27ZM110,235.36l-11.17-6.42-11.16-6.27V176.94l11.16-6.27L110,164.25l11.16,6.42,11.17,6.27v45.73l-11.17,6.27Zm84.72,162.87h-17V316.41c0-3.21,0-11.92,8.56-11.92,8.41,0,8.41,8.71,8.41,11.92Z"/>
            <path class="cls-1" d="M25.79,488.49a13.84,13.84,0,0,1-3.68,9.62,11.54,11.54,0,0,1-8.93,4.08,11.79,11.79,0,0,1-8.9-3.92,13.64,13.64,0,0,1-3.8-9.78V477.36H5V488a11.42,11.42,0,0,0,2,6.73,7.31,7.31,0,0,0,6.17,3.21,7.32,7.32,0,0,0,6.13-3.21,11.39,11.39,0,0,0,2-6.73V477.36h4.52ZM15.46,473.67H11.05v-4.44h4.41Z"/>
            <path class="cls-1" d="M36.13,466.26C35.41,467.39,34.69,468,34,468a4.15,4.15,0,0,1-2-1,4.25,4.25,0,0,0-2.32-1A2.14,2.14,0,0,0,28,467l-.36-1.36q1-1.68,2-1.68a4.72,4.72,0,0,1,2.16,1,4.61,4.61,0,0,0,2.13,1,2.46,2.46,0,0,0,1.84-1.12Zm-1.76,29.28H29.92V469.67h4.45Z"/>
            <path class="cls-1" d="M54.27,495.54H47.1c-.68,4.29-4.32,6.65-9.77,6.65v-3.84c3.72,0,5.57-1.85,5.57-5.69v-15.3h4.48V491h6.89Z"/>
            <path class="cls-1" d="M79.87,495.54H75.42c-3.84,0-6.81-.72-8.93-2.2-2.08,1.48-5,2.2-8.85,2.2H52.71V491H57.4a9.45,9.45,0,0,0,3.72-.44,9.55,9.55,0,0,1-3-3.69,10,10,0,0,1-.92-4.16,7.44,7.44,0,0,1,.48-2.77,9.27,9.27,0,0,1,8.81-6.17c4.53,0,9.33,3.09,9.33,8.78a9.8,9.8,0,0,1-1,4.24A9.5,9.5,0,0,1,72,490.54a9.17,9.17,0,0,0,3.72.44h4.17Zm-15-24.91H60.44v-4.49h4.41ZM69,487.41a5.93,5.93,0,0,0,2.65-5.12,4.75,4.75,0,0,0-5.09-5,4.8,4.8,0,0,0-5.13,5,6,6,0,0,0,2.65,5.12,16.25,16.25,0,0,0,2.48,1.48A17.1,17.1,0,0,0,69,487.41Zm3.49-16.78H68.05v-4.49h4.41Z"/>
            <path class="cls-1" d="M89.84,488.29c0,4.85-2.24,7.25-6.73,7.25H78.39V491h3.8c1.48,0,2.4-.44,2.85-1.32a8.79,8.79,0,0,0,.32-2.89V469.71h4.48Z"/>
            <path class="cls-1" d="M98.41,495.54H94V469.67h4.44Z"/>
            <path class="cls-1" d="M148.48,495.54h-2a11.13,11.13,0,0,1-8-3.28,8.28,8.28,0,0,1-7.33,3.68c-5.33,0-9.06-4.08-9.06-9.37a9.32,9.32,0,0,1,1.13-4.68H120c-3,0-4.93,2.64-4.93,7v13.3h-4.48V488c0-6.45,3.44-10.65,9.41-10.65h11.22c4,0,7.33,2.28,8.33,5.77,1.84,6.33,3.56,7.89,6.93,7.89h2Zm-12.9-8.81c0-3-1.76-5.33-4.52-5.33-2.57,0-4.29,2.17-4.29,5.13s1.88,5.29,4.57,5.29C133.78,491.82,135.58,489.78,135.58,486.73Z"/>
            <path class="cls-1" d="M151,504.32h-4.4v-4.49H151Zm14.26-8.78H146.84V491h4.28a2.79,2.79,0,0,0,2.73-1.36,7.1,7.1,0,0,0,.48-3.05v-9.21h4.44v9c0,2.36-.32,3.89-1,4.65h7.53Zm-6.69,8.78h-4.4v-4.49h4.4Z"/>
            <path class="cls-1" d="M182.57,495.54H164.22V491h4.17a2.72,2.72,0,0,0,2.68-1.36,7.1,7.1,0,0,0,.48-3.05V469.71H176v16.62c0,2.36-.32,3.89-1,4.65h7.53Z"/>
            <path class="cls-1" d="M211.69,495.54h-8.54a7.81,7.81,0,0,1-3.56-1,8.43,8.43,0,0,1-2.56-1.92,16,16,0,0,1-8.86,2.88h-6.72V491h6.64a13,13,0,0,0,3.13-.28,8.17,8.17,0,0,0,2.88-1.24,11.19,11.19,0,0,0-3.4-3,15.36,15.36,0,0,0-4.73-2.16v-4.25a20.11,20.11,0,0,1,10.86-3.28A16.93,16.93,0,0,1,208.24,481a16.35,16.35,0,0,1-2.84,4.45,24.11,24.11,0,0,1-4.61,4.49,3.4,3.4,0,0,0,1.6,1,12.54,12.54,0,0,0,1.77.08h7.53Zm-8.94-13.25a11,11,0,0,0-5.8-1.61,13.07,13.07,0,0,0-6.17,1.65,16,16,0,0,1,6.81,4.8,11.86,11.86,0,0,0,2.92-2.2A17.91,17.91,0,0,0,202.75,482.29Z"/>
            <path class="cls-1" d="M214.65,473.63h-4.4v-4.44h4.4ZM229,495.54h-18.5V491h4.16a2.72,2.72,0,0,0,2.68-1.36,6.92,6.92,0,0,0,.49-3.05v-9.21h4.44v9c0,2.36-.32,3.89-1,4.65H229Zm-6.73-21.91h-4.4v-4.44h4.4Z"/>
            <path class="cls-1" d="M239.12,488.29c0,4.85-2.24,7.25-6.72,7.25h-4.73V491h3.8c1.49,0,2.41-.44,2.85-1.32a8.79,8.79,0,0,0,.32-2.89V469.71h4.48Z"/>
            <path class="cls-1" d="M276.61,488.49a13.84,13.84,0,0,1-3.68,9.62,11.54,11.54,0,0,1-8.93,4.08,11.75,11.75,0,0,1-8.89-3.92,13.6,13.6,0,0,1-3.81-9.78V477.36h4.53V488a11.42,11.42,0,0,0,2,6.73,7.5,7.5,0,0,0,12.3,0,11.39,11.39,0,0,0,2-6.73V477.36h4.52Zm-10.33-14.82h-4.4v-4.44h4.4Z"/>
            <path class="cls-1" d="M292.56,495.54h-5.25a6.07,6.07,0,0,1-5-2.08,7.79,7.79,0,0,1-1.6-5.21V469.71h4.45v16.74c0,2,.44,3.25,1.28,3.85a6.25,6.25,0,0,0,3.44.68h2.65Z"/>
            <path class="cls-1" d="M314.47,486.33c0,5.29-3.61,9.21-9,9.21H291.24V491h6.36a10.13,10.13,0,0,1-1.16-4.77c0-5.45,3.73-9.25,9.05-9.25S314.47,481.08,314.47,486.33Zm-10.62-12.78h-4.36v-4.44h4.36Zm6,12.78c0-3-1.84-5.29-4.53-5.29s-4.28,2-4.28,5.13c0,2.88,1.84,5.25,4.52,5.25S309.86,489.3,309.86,486.33Zm1.6-12.78H307.1v-4.44h4.36Z"/><path class="cls-1" d="M334.37,495.54H327.2c-.68,4.29-4.32,6.65-9.77,6.65v-3.84c3.73,0,5.57-1.85,5.57-5.69v-15.3h4.49V491h6.88Z"/><path class="cls-1" d="M360,495.54h-4.45c-3.84,0-6.81-.72-8.93-2.2-2.08,1.48-5,2.2-8.85,2.2h-4.93V491h4.69a9.45,9.45,0,0,0,3.72-.44,9.55,9.55,0,0,1-3-3.69,10,10,0,0,1-.92-4.16,7.44,7.44,0,0,1,.48-2.77,9.28,9.28,0,0,1,8.81-6.17c4.53,0,9.33,3.09,9.33,8.78a9.8,9.8,0,0,1-1,4.24,9.5,9.5,0,0,1-2.92,3.77,9.17,9.17,0,0,0,3.72.44H360Zm-10.9-8.13a5.93,5.93,0,0,0,2.65-5.12,5.11,5.11,0,1,0-10.22,0,6,6,0,0,0,2.65,5.12,16.25,16.25,0,0,0,2.48,1.48A17.1,17.1,0,0,0,349.07,487.41Zm-.48-16.78h-4.4v-4.49h4.4Z"/><path class="cls-1" d="M369.94,488.29c0,4.85-2.24,7.25-6.73,7.25h-4.72V491h3.8c1.48,0,2.41-.44,2.85-1.32a8.79,8.79,0,0,0,.32-2.89V469.71h4.48Z"/><path class="cls-1" d="M378.52,495.54h-4.45V469.67h4.45Z"/><path class="cls-1" d="M408,495.54h-7.17c-.68,4.29-4.32,6.65-9.77,6.65v-3.84c3.73,0,5.57-1.85,5.57-5.69v-15.3h4.49V491H408Zm-6.93-21.87h-4.4v-4.44h4.4Z"/><path class="cls-1" d="M433.27,492.74v2.8h-26.8V491h22a9.73,9.73,0,0,0-2.16-6.37,8.5,8.5,0,0,0-6.93-3h-9.25L418,469.71h5.32l-5.4,7.65h2a13.27,13.27,0,0,1,7.69,2.2C431.39,482.09,433.27,486.45,433.27,492.74Z"/><path class="cls-1" d="M453.18,495.54H446c-.69,4.29-4.33,6.65-9.78,6.65v-3.84c3.73,0,5.57-1.85,5.57-5.69v-15.3h4.49V491h6.89Z"/><path class="cls-1" d="M475.05,489.86c0,5.32-3.65,9.25-9,9.25a8.5,8.5,0,0,1-7.25-3.57h-7.21V491h5.53l0-.2a9.81,9.81,0,0,1-.08-1.08c0-5.37,3.73-9.22,9.05-9.22S475.05,484.61,475.05,489.86Zm-4.61,0c0-3.05-1.84-5.33-4.49-5.33s-4.32,2.12-4.32,5.13,1.88,5.28,4.56,5.28C468.68,494.94,470.44,492.9,470.44,489.86Z"/><path class="cls-1" d="M19.67,542.54h-2.2a1,1,0,0,1-.62-.19,1.22,1.22,0,0,1-.35-.48l-2-5.07H5.13l-2,5.07a1.18,1.18,0,0,1-.35.47,1,1,0,0,1-.61.2H0l8.39-21h2.89ZM5.92,534.75h7.83l-3.29-8.54a14,14,0,0,1-.63-2c-.11.4-.22.77-.32,1.1s-.2.64-.3.89Z"/><path class="cls-1" d="M24.89,521v21.57h-2.6V521Z"/><path class="cls-1" d="M28.91,532.66h7.23v2.21H28.91Z"/><path class="cls-1" d="M53.17,521.56v2.31H43.1v7.34h8.61v2.31H43.1v9H40.24v-21Z"/><path class="cls-1" d="M57.87,527.71v9.46a3.9,3.9,0,0,0,.78,2.6,2.87,2.87,0,0,0,2.34.93,4.48,4.48,0,0,0,2.15-.54A6.76,6.76,0,0,0,65,538.65V527.71h2.61v14.83H66.06a.67.67,0,0,1-.71-.54l-.2-1.6A8.27,8.27,0,0,1,63,542.13a5.73,5.73,0,0,1-2.75.65,5.35,5.35,0,0,1-2.15-.41,4.13,4.13,0,0,1-1.56-1.13,4.84,4.84,0,0,1-.94-1.77,7.94,7.94,0,0,1-.32-2.3v-9.46Z"/><path class="cls-1" d="M72,542.54V527.71h1.49a.83.83,0,0,1,.59.16,1.05,1.05,0,0,1,.22.56l.17,2.31a6.82,6.82,0,0,1,1.88-2.42,4.13,4.13,0,0,1,2.63-.88,4.35,4.35,0,0,1,1.12.14A4.46,4.46,0,0,1,81,528l-.34,1.95a.45.45,0,0,1-.45.37,2.35,2.35,0,0,1-.63-.14A3.75,3.75,0,0,0,78.4,530a3.35,3.35,0,0,0-2.28.79,5.93,5.93,0,0,0-1.53,2.3v9.44Z"/><path class="cls-1" d="M95.87,527.71v19.86h-2.6v-7.22a7.87,7.87,0,0,1-2.14,1.74,5.52,5.52,0,0,1-2.73.66,5.43,5.43,0,0,1-2.31-.49,4.9,4.9,0,0,1-1.77-1.44,6.84,6.84,0,0,1-1.13-2.38,12.27,12.27,0,0,1-.4-3.26,10.38,10.38,0,0,1,.44-3.06,7.59,7.59,0,0,1,1.27-2.45,5.84,5.84,0,0,1,4.71-2.23,5.33,5.33,0,0,1,2.44.52,5.7,5.7,0,0,1,1.79,1.45l.18-1.16a.66.66,0,0,1,.7-.54Zm-6.6,12.93a4.19,4.19,0,0,0,2.23-.59,6.5,6.5,0,0,0,1.77-1.65v-7.18a4.34,4.34,0,0,0-1.57-1.34,4.45,4.45,0,0,0-1.91-.4A3.75,3.75,0,0,0,86.6,531a6.93,6.93,0,0,0-1.11,4.22,10.53,10.53,0,0,0,.25,2.48,4.75,4.75,0,0,0,.73,1.7,2.85,2.85,0,0,0,1.19,1A3.89,3.89,0,0,0,89.27,540.64Z"/><path class="cls-1" d="M111.23,542.54h-1.15a1.53,1.53,0,0,1-.62-.11.69.69,0,0,1-.31-.5l-.29-1.38c-.39.35-.77.67-1.14,1a7,7,0,0,1-1.17.7,6.29,6.29,0,0,1-1.31.43,7.41,7.41,0,0,1-1.55.15,5.09,5.09,0,0,1-1.62-.25,3.71,3.71,0,0,1-1.31-.72,3.58,3.58,0,0,1-.88-1.23,4.29,4.29,0,0,1-.33-1.76,3.29,3.29,0,0,1,.48-1.69,4.16,4.16,0,0,1,1.56-1.45,10.25,10.25,0,0,1,2.82-1,19.14,19.14,0,0,1,4.26-.4v-1.16a4.09,4.09,0,0,0-.74-2.64,2.69,2.69,0,0,0-2.19-.89,4.41,4.41,0,0,0-1.6.25,6,6,0,0,0-1.13.54c-.32.2-.59.38-.82.54a1.2,1.2,0,0,1-.68.24.78.78,0,0,1-.46-.14,1.15,1.15,0,0,1-.32-.34l-.46-.84a8.32,8.32,0,0,1,2.65-1.77,8.13,8.13,0,0,1,3.14-.59,5.48,5.48,0,0,1,2.21.42A4.44,4.44,0,0,1,109.9,529a4.86,4.86,0,0,1,1,1.77,7.48,7.48,0,0,1,.33,2.28ZM104.47,541a5.46,5.46,0,0,0,1.26-.14,5.25,5.25,0,0,0,1.07-.4,5.89,5.89,0,0,0,1-.62,7,7,0,0,0,.9-.84v-3.06a17.68,17.68,0,0,0-3.06.23,8.27,8.27,0,0,0-2,.6,2.75,2.75,0,0,0-1.15.87,1.87,1.87,0,0,0-.36,1.12,2.4,2.4,0,0,0,.19,1,2,2,0,0,0,.51.7,1.89,1.89,0,0,0,.77.4A3.57,3.57,0,0,0,104.47,541Z"/><path class="cls-1" d="M115.27,542.54V527.71h1.56a.66.66,0,0,1,.7.54l.2,1.61a8.61,8.61,0,0,1,2.16-1.73,5.63,5.63,0,0,1,2.76-.66,5.35,5.35,0,0,1,2.15.41,4.15,4.15,0,0,1,1.55,1.14,5.06,5.06,0,0,1,1,1.78,7.89,7.89,0,0,1,.32,2.3v9.44H125V533.1a4,4,0,0,0-.77-2.62,2.86,2.86,0,0,0-2.35-.93,4.4,4.4,0,0,0-2.16.56,7,7,0,0,0-1.85,1.51v10.92Z"/><path class="cls-1" d="M152.59,538.21a.58.58,0,0,1,.42.19l1.11,1.21a8.88,8.88,0,0,1-3.12,2.33,10.61,10.61,0,0,1-4.43.84,10.3,10.3,0,0,1-4.12-.79,9,9,0,0,1-3.15-2.19,10.06,10.06,0,0,1-2-3.39,12.89,12.89,0,0,1-.71-4.35,12,12,0,0,1,.76-4.35,10.19,10.19,0,0,1,2.16-3.4,9.58,9.58,0,0,1,3.34-2.2,11.17,11.17,0,0,1,4.28-.79,9.56,9.56,0,0,1,7,2.67l-.92,1.3a.91.91,0,0,1-.24.24.58.58,0,0,1-.38.1.77.77,0,0,1-.4-.14l-.51-.34a7.36,7.36,0,0,0-.68-.44,5.5,5.5,0,0,0-.94-.44,8.05,8.05,0,0,0-1.26-.35,9,9,0,0,0-1.66-.14,8.08,8.08,0,0,0-3.08.58A7.09,7.09,0,0,0,141.6,526a7.4,7.4,0,0,0-1.57,2.61,9.81,9.81,0,0,0-.56,3.44,10,10,0,0,0,.56,3.5,7.7,7.7,0,0,0,1.54,2.6,6.52,6.52,0,0,0,2.3,1.61,7.24,7.24,0,0,0,2.87.56,12.19,12.19,0,0,0,1.69-.11,7,7,0,0,0,1.38-.34,6,6,0,0,0,1.19-.6,8.82,8.82,0,0,0,1.1-.85A.74.74,0,0,1,152.59,538.21Z"/><path class="cls-1" d="M163.41,527.47a6.56,6.56,0,0,1,2.46.45,5.63,5.63,0,0,1,1.95,1.29,6,6,0,0,1,1.28,2.08,8.17,8.17,0,0,1,.46,2.82,1.82,1.82,0,0,1-.13.82.55.55,0,0,1-.5.2h-9.87a8.35,8.35,0,0,0,.38,2.45,4.91,4.91,0,0,0,1,1.73,3.77,3.77,0,0,0,1.46,1,5,5,0,0,0,1.9.35,5.68,5.68,0,0,0,1.7-.23,7.54,7.54,0,0,0,1.22-.49,9.38,9.38,0,0,0,.85-.49,1.16,1.16,0,0,1,.6-.23.6.6,0,0,1,.5.25l.73,1a5,5,0,0,1-1.16,1,6.89,6.89,0,0,1-1.44.71,8.45,8.45,0,0,1-1.59.42,10.06,10.06,0,0,1-1.63.14,7.66,7.66,0,0,1-2.83-.52,6.3,6.3,0,0,1-2.24-1.53,6.84,6.84,0,0,1-1.47-2.48,10.09,10.09,0,0,1-.53-3.39,8.52,8.52,0,0,1,.48-2.9,6.66,6.66,0,0,1,1.37-2.34,6.14,6.14,0,0,1,2.18-1.55A7.08,7.08,0,0,1,163.41,527.47Zm.06,1.92a4.06,4.06,0,0,0-3,1.09,5.13,5.13,0,0,0-1.34,3h8.07a5.41,5.41,0,0,0-.25-1.66,3.66,3.66,0,0,0-.74-1.31,3.33,3.33,0,0,0-1.17-.85A4,4,0,0,0,163.47,529.39Z"/><path class="cls-1" d="M173,542.54V527.71h1.55a.67.67,0,0,1,.71.54l.2,1.61a8.27,8.27,0,0,1,2.16-1.73,5.63,5.63,0,0,1,2.76-.66,5.35,5.35,0,0,1,2.15.41,4.23,4.23,0,0,1,1.55,1.14,5,5,0,0,1,.94,1.78,7.57,7.57,0,0,1,.32,2.3v9.44h-2.6V533.1a4,4,0,0,0-.77-2.62,2.88,2.88,0,0,0-2.35-.93,4.4,4.4,0,0,0-2.16.56,6.87,6.87,0,0,0-1.85,1.51v10.92Z"/><path class="cls-1" d="M193.84,542.78a3.59,3.59,0,0,1-2.7-1,3.94,3.94,0,0,1-.95-2.83v-9.08H188.4a.6.6,0,0,1-.39-.14.53.53,0,0,1-.16-.43v-1l2.43-.31.6-4.58a.53.53,0,0,1,.19-.36.62.62,0,0,1,.41-.14h1.32V528H197v1.89H192.8v8.9a1.93,1.93,0,0,0,.45,1.4,1.58,1.58,0,0,0,1.17.45,2.12,2.12,0,0,0,.71-.11,2.52,2.52,0,0,0,.52-.24l.38-.24a.39.39,0,0,1,.63.14l.77,1.24a5,5,0,0,1-1.63,1A5.49,5.49,0,0,1,193.84,542.78Z"/><path class="cls-1" d="M206.23,527.47a6.64,6.64,0,0,1,2.46.45,5.5,5.5,0,0,1,1.94,1.29,5.83,5.83,0,0,1,1.29,2.08,8.17,8.17,0,0,1,.46,2.82,1.66,1.66,0,0,1-.14.82.52.52,0,0,1-.49.2h-9.87a8,8,0,0,0,.38,2.45,4.89,4.89,0,0,0,1,1.73,3.8,3.8,0,0,0,1.47,1,5,5,0,0,0,1.9.35,5.57,5.57,0,0,0,1.69-.23,7.68,7.68,0,0,0,1.23-.49c.34-.18.62-.34.85-.49a1.16,1.16,0,0,1,.6-.23.57.57,0,0,1,.49.25l.74,1a5.18,5.18,0,0,1-1.16,1,6.89,6.89,0,0,1-1.44.71,8.88,8.88,0,0,1-1.59.42,10.06,10.06,0,0,1-1.63.14,7.66,7.66,0,0,1-2.83-.52,6.21,6.21,0,0,1-2.24-1.53,6.84,6.84,0,0,1-1.47-2.48,10.09,10.09,0,0,1-.53-3.39,8.52,8.52,0,0,1,.48-2.9,6.8,6.8,0,0,1,1.36-2.34,6.27,6.27,0,0,1,2.19-1.55A7.08,7.08,0,0,1,206.23,527.47Zm.05,1.92a4,4,0,0,0-3,1.09,5.2,5.2,0,0,0-1.35,3H210a5.12,5.12,0,0,0-.25-1.66,3.64,3.64,0,0,0-.73-1.31,3.28,3.28,0,0,0-1.18-.85A4,4,0,0,0,206.28,529.39Z"/><path class="cls-1" d="M215.79,542.54V527.71h1.49a.83.83,0,0,1,.59.16,1.05,1.05,0,0,1,.22.56l.17,2.31a6.82,6.82,0,0,1,1.88-2.42,4.13,4.13,0,0,1,2.63-.88,4.35,4.35,0,0,1,1.12.14,4.46,4.46,0,0,1,.92.39l-.34,1.95a.45.45,0,0,1-.45.37,2.35,2.35,0,0,1-.63-.14,3.79,3.79,0,0,0-1.19-.14,3.35,3.35,0,0,0-2.28.79,5.93,5.93,0,0,0-1.53,2.3v9.44Z"/><path class="cls-1" d="M234,542.54V529.93l-1.64-.19a1.35,1.35,0,0,1-.5-.22.55.55,0,0,1-.2-.45V528H234v-1.43a6.63,6.63,0,0,1,.36-2.27,4.66,4.66,0,0,1,1-1.67,4.46,4.46,0,0,1,1.6-1,6.1,6.1,0,0,1,2.11-.35,5.83,5.83,0,0,1,1.85.29l-.06,1.31a.34.34,0,0,1-.25.35,2.85,2.85,0,0,1-.66.06h-.45a4.3,4.3,0,0,0-1.23.17,2.38,2.38,0,0,0-.94.57,2.54,2.54,0,0,0-.61,1,5.22,5.22,0,0,0-.21,1.6V528h4.29v1.89h-4.2v12.65Z"/><path class="cls-1" d="M249.38,527.47a7.51,7.51,0,0,1,2.94.55,6.21,6.21,0,0,1,2.22,1.53A6.94,6.94,0,0,1,256,532a10.43,10.43,0,0,1,0,6.32,6.81,6.81,0,0,1-1.41,2.4,6,6,0,0,1-2.22,1.53,8.27,8.27,0,0,1-5.88,0,6.09,6.09,0,0,1-2.23-1.53,6.83,6.83,0,0,1-1.42-2.4,10.24,10.24,0,0,1,0-6.32,7,7,0,0,1,1.42-2.41,6.34,6.34,0,0,1,2.23-1.53A7.51,7.51,0,0,1,249.38,527.47Zm0,13.24a3.81,3.81,0,0,0,3.28-1.47,6.83,6.83,0,0,0,1.08-4.11,6.92,6.92,0,0,0-1.08-4.13,3.82,3.82,0,0,0-3.28-1.48,4.58,4.58,0,0,0-1.93.38,3.6,3.6,0,0,0-1.37,1.1,4.83,4.83,0,0,0-.82,1.77,10.45,10.45,0,0,0,0,4.72,4.73,4.73,0,0,0,.82,1.75,3.57,3.57,0,0,0,1.37,1.09A4.43,4.43,0,0,0,249.38,540.71Z"/><path class="cls-1" d="M259.75,542.54V527.71h1.49a.82.82,0,0,1,.59.16,1,1,0,0,1,.22.56l.17,2.31a6.82,6.82,0,0,1,1.88-2.42,4.13,4.13,0,0,1,2.63-.88,4.29,4.29,0,0,1,1.12.14,4.46,4.46,0,0,1,.92.39l-.34,1.95a.45.45,0,0,1-.45.37,2.35,2.35,0,0,1-.63-.14,3.75,3.75,0,0,0-1.19-.14,3.34,3.34,0,0,0-2.27.79,6.05,6.05,0,0,0-1.54,2.3v9.44Z"/><path class="cls-1" d="M297.28,532.06a12.81,12.81,0,0,1-.3,2.81,10.85,10.85,0,0,1-.87,2.48,10,10,0,0,1-1.39,2.09,9.2,9.2,0,0,1-1.85,1.62l5.39,5.82h-2.34a2.73,2.73,0,0,1-.94-.15,2,2,0,0,1-.75-.51l-3.69-4a13.24,13.24,0,0,1-1.73.41,12.69,12.69,0,0,1-1.88.14,11,11,0,0,1-4.22-.78,9.41,9.41,0,0,1-3.27-2.21,9.81,9.81,0,0,1-2.1-3.38,12.87,12.87,0,0,1,0-8.66,10,10,0,0,1,2.1-3.4,9.57,9.57,0,0,1,3.27-2.22,11.67,11.67,0,0,1,8.44,0,9.52,9.52,0,0,1,3.28,2.22,10,10,0,0,1,2.1,3.4A12.08,12.08,0,0,1,297.28,532.06Zm-2.91,0a10.67,10.67,0,0,0-.53-3.47,7.36,7.36,0,0,0-1.49-2.6,6.49,6.49,0,0,0-2.35-1.63,7.78,7.78,0,0,0-3.07-.58,7.69,7.69,0,0,0-3.06.58,6.49,6.49,0,0,0-2.35,1.63,7.23,7.23,0,0,0-1.5,2.6,11.59,11.59,0,0,0,0,6.93,7.27,7.27,0,0,0,1.5,2.59,6.49,6.49,0,0,0,2.35,1.63,8.06,8.06,0,0,0,3.06.56,8.15,8.15,0,0,0,3.07-.56,6.49,6.49,0,0,0,2.35-1.63,7.4,7.4,0,0,0,1.49-2.59A10.61,10.61,0,0,0,294.37,532.06Z"/><path class="cls-1" d="M303.09,527.71v9.46a3.9,3.9,0,0,0,.78,2.6,2.88,2.88,0,0,0,2.34.93,4.55,4.55,0,0,0,2.16-.54,7.06,7.06,0,0,0,1.86-1.51V527.71h2.6v14.83h-1.55a.66.66,0,0,1-.7-.54l-.21-1.6a8.11,8.11,0,0,1-2.17,1.73,5.7,5.7,0,0,1-2.75.65,5.3,5.3,0,0,1-2.14-.41,4.13,4.13,0,0,1-1.56-1.13,4.86,4.86,0,0,1-.95-1.77,8,8,0,0,1-.31-2.3v-9.46Z"/><path class="cls-1" d="M317.21,542.54V527.71h1.49a.82.82,0,0,1,.59.16,1,1,0,0,1,.22.56l.17,2.31a6.73,6.73,0,0,1,1.89-2.42,4.09,4.09,0,0,1,2.62-.88,4.29,4.29,0,0,1,1.12.14,4.46,4.46,0,0,1,.92.39l-.34,1.95a.45.45,0,0,1-.45.37,2.35,2.35,0,0,1-.63-.14,3.75,3.75,0,0,0-1.19-.14,3.34,3.34,0,0,0-2.27.79,5.93,5.93,0,0,0-1.53,2.3v9.44Z"/><path class="cls-1" d="M339.44,542.54h-1.16a1.48,1.48,0,0,1-.61-.11.66.66,0,0,1-.31-.5l-.29-1.38c-.39.35-.77.67-1.14,1a7.48,7.48,0,0,1-1.18.7,6.1,6.1,0,0,1-1.31.43,7.31,7.31,0,0,1-1.54.15,5,5,0,0,1-1.62-.25,3.71,3.71,0,0,1-1.31-.72,3.61,3.61,0,0,1-.89-1.23,4.29,4.29,0,0,1-.33-1.76,3.3,3.3,0,0,1,.49-1.69,4.16,4.16,0,0,1,1.56-1.45,10,10,0,0,1,2.82-1,19.14,19.14,0,0,1,4.26-.4v-1.16a4.09,4.09,0,0,0-.74-2.64,2.71,2.71,0,0,0-2.19-.89,4.37,4.37,0,0,0-1.6.25,5.67,5.67,0,0,0-1.13.54c-.32.2-.59.38-.82.54a1.2,1.2,0,0,1-.68.24.78.78,0,0,1-.46-.14,1,1,0,0,1-.32-.34l-.47-.84a8.55,8.55,0,0,1,2.65-1.77,8.22,8.22,0,0,1,3.15-.59,5.48,5.48,0,0,1,2.21.42,4.44,4.44,0,0,1,1.63,1.14,4.71,4.71,0,0,1,1,1.77,7.18,7.18,0,0,1,.34,2.28ZM332.67,541a5.46,5.46,0,0,0,1.26-.14,5.57,5.57,0,0,0,1.08-.4,5.89,5.89,0,0,0,1-.62,8.64,8.64,0,0,0,.9-.84v-3.06a17.68,17.68,0,0,0-3.06.23,8.14,8.14,0,0,0-2.05.6,2.75,2.75,0,0,0-1.15.87,1.87,1.87,0,0,0-.36,1.12,2.4,2.4,0,0,0,.19,1,1.84,1.84,0,0,0,.51.7,1.92,1.92,0,0,0,.76.4A3.63,3.63,0,0,0,332.67,541Z"/><path class="cls-1" d="M343.48,542.54V527.71H345a.67.67,0,0,1,.71.54l.2,1.61a8.27,8.27,0,0,1,2.16-1.73,5.63,5.63,0,0,1,2.76-.66,5.35,5.35,0,0,1,2.15.41,4.23,4.23,0,0,1,1.55,1.14,5,5,0,0,1,.94,1.78,7.57,7.57,0,0,1,.32,2.3v9.44h-2.6V533.1a4,4,0,0,0-.77-2.62,2.88,2.88,0,0,0-2.35-.93,4.4,4.4,0,0,0-2.16.56,6.87,6.87,0,0,0-1.85,1.51v10.92Z"/><path class="cls-1" d="M368.84,540.16h9.08v2.38H366v-21h2.84Z"/><path class="cls-1" d="M386.08,527.47a6.56,6.56,0,0,1,2.46.45,5.63,5.63,0,0,1,1.95,1.29,6,6,0,0,1,1.28,2.08,7.94,7.94,0,0,1,.46,2.82,1.69,1.69,0,0,1-.13.82.55.55,0,0,1-.5.2h-9.87a8.35,8.35,0,0,0,.38,2.45,5.07,5.07,0,0,0,1,1.73,3.84,3.84,0,0,0,1.46,1,5,5,0,0,0,1.9.35,5.68,5.68,0,0,0,1.7-.23,7.54,7.54,0,0,0,1.22-.49c.34-.18.63-.34.86-.49a1.11,1.11,0,0,1,.59-.23.6.6,0,0,1,.5.25l.73,1a5,5,0,0,1-1.16,1,6.89,6.89,0,0,1-1.44.71,8.45,8.45,0,0,1-1.59.42,10,10,0,0,1-1.62.14,7.71,7.71,0,0,1-2.84-.52,6.3,6.3,0,0,1-2.24-1.53,6.84,6.84,0,0,1-1.47-2.48,10.09,10.09,0,0,1-.53-3.39,8.52,8.52,0,0,1,.48-2.9,6.82,6.82,0,0,1,1.37-2.34,6.14,6.14,0,0,1,2.18-1.55A7.11,7.11,0,0,1,386.08,527.47Zm.06,1.92a4.06,4.06,0,0,0-3,1.09,5.13,5.13,0,0,0-1.34,3h8.07a5.41,5.41,0,0,0-.25-1.66,3.66,3.66,0,0,0-.74-1.31,3.33,3.33,0,0,0-1.17-.85A4,4,0,0,0,386.14,529.39Z"/><path class="cls-1" d="M406.54,542.54h-1.16a1.56,1.56,0,0,1-.62-.11.68.68,0,0,1-.3-.5l-.3-1.38c-.39.35-.77.67-1.14,1a7,7,0,0,1-1.17.7,6.29,6.29,0,0,1-1.31.43,7.34,7.34,0,0,1-1.55.15,5,5,0,0,1-1.61-.25,3.62,3.62,0,0,1-1.31-.72,3.48,3.48,0,0,1-.89-1.23,4.29,4.29,0,0,1-.33-1.76,3.29,3.29,0,0,1,.48-1.69,4.32,4.32,0,0,1,1.56-1.45,10.25,10.25,0,0,1,2.82-1,19.14,19.14,0,0,1,4.26-.4v-1.16a4,4,0,0,0-.74-2.64,2.68,2.68,0,0,0-2.18-.89,4.46,4.46,0,0,0-1.61.25,6.26,6.26,0,0,0-1.13.54l-.82.54a1.17,1.17,0,0,1-.68.24.81.81,0,0,1-.46-.14,1,1,0,0,1-.31-.34l-.47-.84a8.43,8.43,0,0,1,2.65-1.77,8.22,8.22,0,0,1,3.15-.59,5.51,5.51,0,0,1,2.21.42A4.49,4.49,0,0,1,405.2,529a4.72,4.72,0,0,1,1,1.77,7.47,7.47,0,0,1,.34,2.28ZM399.77,541a5.46,5.46,0,0,0,1.26-.14,5.57,5.57,0,0,0,1.08-.4,5.81,5.81,0,0,0,1-.62,7,7,0,0,0,.9-.84v-3.06a17.68,17.68,0,0,0-3.06.23,8.27,8.27,0,0,0-2.05.6,2.81,2.81,0,0,0-1.15.87,1.87,1.87,0,0,0-.36,1.12,2.39,2.39,0,0,0,.2,1,1.74,1.74,0,0,0,.51.7,1.85,1.85,0,0,0,.76.4A3.57,3.57,0,0,0,399.77,541Z"/><path class="cls-1" d="M410.58,542.54V527.71h1.49a.83.83,0,0,1,.59.16,1,1,0,0,1,.22.56l.17,2.31a6.82,6.82,0,0,1,1.88-2.42,4.13,4.13,0,0,1,2.63-.88,4.35,4.35,0,0,1,1.12.14,4.71,4.71,0,0,1,.92.39l-.34,1.95a.45.45,0,0,1-.45.37,2.35,2.35,0,0,1-.63-.14A3.75,3.75,0,0,0,417,530a3.35,3.35,0,0,0-2.28.79,5.93,5.93,0,0,0-1.53,2.3v9.44Z"/><path class="cls-1" d="M422.47,542.54V527.71H424a.66.66,0,0,1,.7.54l.21,1.61a8.27,8.27,0,0,1,2.16-1.73,5.58,5.58,0,0,1,2.76-.66,5.3,5.3,0,0,1,2.14.41,4.26,4.26,0,0,1,1.56,1.14,5,5,0,0,1,.94,1.78,7.57,7.57,0,0,1,.32,2.3v9.44h-2.6V533.1a4,4,0,0,0-.77-2.62,2.88,2.88,0,0,0-2.35-.93,4.4,4.4,0,0,0-2.16.56,7.06,7.06,0,0,0-1.86,1.51v10.92Z"/><path class="cls-1" d="M442.33,523.05a1.68,1.68,0,0,1-.16.71,2,2,0,0,1-.41.59,2,2,0,0,1-.59.4,1.75,1.75,0,0,1-.72.15,1.71,1.71,0,0,1-.71-.15,1.94,1.94,0,0,1-.58-.4,1.84,1.84,0,0,1-.41-.59,1.67,1.67,0,0,1-.14-.71,1.8,1.8,0,0,1,.55-1.32,2,2,0,0,1,.58-.41,1.87,1.87,0,0,1,.71-.14,1.92,1.92,0,0,1,.72.14,2,2,0,0,1,.59.41,1.94,1.94,0,0,1,.41.6A1.8,1.8,0,0,1,442.33,523.05Zm-.59,4.66v14.83h-2.61V527.71Z"/><path class="cls-1" d="M446.43,542.54V527.71H448a.66.66,0,0,1,.7.54l.21,1.61a8.27,8.27,0,0,1,2.16-1.73,5.58,5.58,0,0,1,2.76-.66,5.3,5.3,0,0,1,2.14.41A4.15,4.15,0,0,1,457.5,529a5.06,5.06,0,0,1,.95,1.78,7.89,7.89,0,0,1,.32,2.3v9.44h-2.61V533.1a4,4,0,0,0-.76-2.62,2.9,2.9,0,0,0-2.36-.93,4.4,4.4,0,0,0-2.16.56,7.19,7.19,0,0,0-1.85,1.51v10.92Z"/><path class="cls-1" d="M467.79,527.46a7.43,7.43,0,0,1,1.81.21,5.78,5.78,0,0,1,1.53.62h4v1c0,.32-.21.53-.62.62l-1.68.23a4.79,4.79,0,0,1,.08,4.09,4.56,4.56,0,0,1-1.16,1.52,5.26,5.26,0,0,1-1.76,1,7.15,7.15,0,0,1-2.23.33,7.31,7.31,0,0,1-2-.25,2.67,2.67,0,0,0-.71.65,1.23,1.23,0,0,0-.24.69.93.93,0,0,0,.42.82,2.88,2.88,0,0,0,1.13.4,9.57,9.57,0,0,0,1.6.12h1.82a9.94,9.94,0,0,1,1.82.17,5.2,5.2,0,0,1,1.6.53,2.79,2.79,0,0,1,1.55,2.71,3.94,3.94,0,0,1-.48,1.87,5,5,0,0,1-1.36,1.61,7.29,7.29,0,0,1-2.19,1.13,9.38,9.38,0,0,1-2.91.42,11.54,11.54,0,0,1-2.85-.32,6.93,6.93,0,0,1-2-.87,3.87,3.87,0,0,1-1.21-1.25,3.08,3.08,0,0,1-.4-1.49,2.67,2.67,0,0,1,.7-1.87,4.74,4.74,0,0,1,1.91-1.22,2.57,2.57,0,0,1-1-.79,2.08,2.08,0,0,1-.38-1.31,2,2,0,0,1,.12-.66,2.63,2.63,0,0,1,.36-.68,3.89,3.89,0,0,1,.59-.64,3.64,3.64,0,0,1,.82-.54,4.68,4.68,0,0,1-1.72-1.64,4.86,4.86,0,0,1-.2-4.35,4.16,4.16,0,0,1,1.16-1.5,5.17,5.17,0,0,1,1.78-1A7.09,7.09,0,0,1,467.79,527.46Zm4.63,15.84a1.31,1.31,0,0,0-.31-.92,2.09,2.09,0,0,0-.83-.53,6.31,6.31,0,0,0-1.22-.27,11.18,11.18,0,0,0-1.45-.09h-1.55a5.73,5.73,0,0,1-1.51-.2,4.11,4.11,0,0,0-1.35,1,1.93,1.93,0,0,0-.52,1.36,1.78,1.78,0,0,0,.25.93,2.12,2.12,0,0,0,.79.75,4.49,4.49,0,0,0,1.32.5,8.63,8.63,0,0,0,1.88.18,8.27,8.27,0,0,0,1.89-.19,4.73,4.73,0,0,0,1.42-.55,2.76,2.76,0,0,0,.88-.85A2,2,0,0,0,472.42,543.3Zm-4.63-8a4,4,0,0,0,1.4-.22,2.89,2.89,0,0,0,1-.61,2.43,2.43,0,0,0,.61-1,3.29,3.29,0,0,0,.21-1.2,2.9,2.9,0,0,0-.83-2.17,4,4,0,0,0-4.8,0,2.9,2.9,0,0,0-.83,2.17,3.29,3.29,0,0,0,.21,1.2,2.57,2.57,0,0,0,.62,1,2.85,2.85,0,0,0,1,.61A3.92,3.92,0,0,0,467.79,535.29Z"/></g></g></svg>